<svg id="Layer_1" data-name="Layer 1" xmlns="http://www.w3.org/2000/svg" viewBox="0 0 315 23.42"><defs><style>.cls-1{fill:#010101;}</style></defs><title>Artboard 1</title><path class="cls-1" d="M3.15,19.38V4H.5V.93h10l4.4,16.33L19.47.93H29.4V4H26.62V19.38H29.4v3.19H20V19.38h2.45V4L17,22.57H12.33L6.91,4V19.38H9.19v3.19H.5V19.38Z"/><path class="cls-1" d="M33.26,22.57V19.36H35L42.64.8h5.54l7.55,18.56h1.69v3.21H48.28V19.36H50.9l-1.3-3.52H40.69l-1.33,3.51H42v3.22Zm8.59-9.9h6.49L45.17,4.38Z"/><path class="cls-1" d="M80.22,15.14a8.65,8.65,0,0,1-2.75,5.95A10,10,0,0,1,70.88,23q-5.32,0-8.22-3T59.78,11.6A11.62,11.62,0,0,1,62.5,3.5a9.34,9.34,0,0,1,7.28-3,9,9,0,0,1,3.84.75,6,6,0,0,1,2.54,2.22V1.1H80V8.91H75.92a7.48,7.48,0,0,0-1.74-4,4.64,4.64,0,0,0-3.46-1.29,5.17,5.17,0,0,0-4.36,2.23,9.87,9.87,0,0,0-1.64,6,9.65,9.65,0,0,0,1.6,5.88,5.18,5.18,0,0,0,4.4,2.14A4.56,4.56,0,0,0,74,18.67a6.5,6.5,0,0,0,1.68-3.53Z"/><path class="cls-1" d="M87.39,19.35V4H84.8V.93h9.83V4H92v6.86L98.66,4H96.78V.93h9.4V4h-2.05l-7,7,7.16,8.31h2.15v3.22H96.54V19.35h2.39L92,11.5v7.85h2.63v3.22H84.8V19.35Z"/><path class="cls-1" d="M110.56,22.57V19.36h2.81V4h-2.81V.93h19.29v6.4H126.2V4H118v6h3V7.07h3.41v8.77H121V13h-3v6.36h8.16V15.45h3.71v7.12Z"/><path class="cls-1" d="M136.32,19.35V4H133.5V.93h12.14q3.78,0,5.65,1.5A5.45,5.45,0,0,1,153.17,7,4.87,4.87,0,0,1,152,10.48a6.51,6.51,0,0,1-3.8,1.63,4.83,4.83,0,0,1,2.43.89,3.9,3.9,0,0,1,1.32,2l1.3,4.37h2.09v3.22h-5.91l-2-6.77a3,3,0,0,0-1.2-1.79,5.27,5.27,0,0,0-2.7-.5h-2.56v5.83h3.51v3.21H133.5V19.35Zm4.61-8.77h4a3.6,3.6,0,0,0,2.6-.89,3.42,3.42,0,0,0,.92-2.52,2.9,2.9,0,0,0-1-2.35A4.22,4.22,0,0,0,144.68,4h-3.75Z"/><path class="cls-1" d="M159.28,22.57V19.36h2.82V4h-2.82V.93h19.3v6.4h-3.65V4h-8.21v6h3V7.07h3.41v8.77h-3.42V13h-3v6.36h8.16V15.45h3.7v7.12Z"/><path class="cls-1" d="M187.07,19.35V4h-2.79V.93h10.47V4h-3.07V19.35h6.83V14.89h3.8v7.68h-18V19.35Z"/><path class="cls-1" d="M227,15.14a8.65,8.65,0,0,1-2.76,5.95A9.92,9.92,0,0,1,217.62,23q-5.33,0-8.22-3c-1.93-2-2.89-4.81-2.89-8.46a11.62,11.62,0,0,1,2.72-8.1,9.35,9.35,0,0,1,7.29-3,9,9,0,0,1,3.83.75,5.88,5.88,0,0,1,2.54,2.22V1.1h3.87V8.91h-4.11a7.33,7.33,0,0,0-1.74-4,4.62,4.62,0,0,0-3.45-1.29,5.15,5.15,0,0,0-4.36,2.23,9.87,9.87,0,0,0-1.64,6,9.65,9.65,0,0,0,1.6,5.88,5.22,5.22,0,0,0,4.4,2.15,4.56,4.56,0,0,0,3.26-1.16,6.39,6.39,0,0,0,1.67-3.53H227Z"/><path class="cls-1" d="M235.41,19.35V4h-2.82V.93h12.14c2.51,0,4.4.5,5.65,1.5A5.45,5.45,0,0,1,252.26,7,4.83,4.83,0,0,1,251,10.48a6.48,6.48,0,0,1-3.79,1.63,4.83,4.83,0,0,1,2.43.89A4,4,0,0,1,251,15l1.3,4.37h2.08v3.22h-5.9l-2-6.77A3,3,0,0,0,245.29,14a5.31,5.31,0,0,0-2.71-.5H240v5.82h3.51v3.22H232.59V19.35ZM240,10.58h4a3.57,3.57,0,0,0,2.59-.89,3.39,3.39,0,0,0,.92-2.53,2.89,2.89,0,0,0-1-2.34,4.27,4.27,0,0,0-2.8-.81H240v6.57Z"/><path class="cls-1" d="M257.91,11.76a11.24,11.24,0,0,1,3-8.26,12.7,12.7,0,0,1,16.48,0,11.16,11.16,0,0,1,3,8.27,11.11,11.11,0,0,1-3,8.25,12.75,12.75,0,0,1-16.49,0A11.19,11.19,0,0,1,257.91,11.76Zm5-.06a9.33,9.33,0,0,0,1.66,5.92,6.17,6.17,0,0,0,9.27,0,9.37,9.37,0,0,0,1.64-5.92,9.35,9.35,0,0,0-1.64-5.9,6.18,6.18,0,0,0-9.27,0,9.37,9.37,0,0,0-1.66,5.9Z"/><path class="cls-1" d="M283.31,4V.93h8.8V4h-2.75l2.93,14.39L296.35.93h5.87l3.95,17.47L309.28,4h-2.79V.93h8.26V4h-1.46l-4.55,18.56h-5.66L299,4.24,294.8,22.57h-5.64L284.76,4Z"/></svg>